<?xml version="1.0" encoding="utf-8"?>
<!-- Generator: Adobe Illustrator 24.1.0, SVG Export Plug-In . SVG Version: 6.00 Build 0)  -->
<svg version="1.1" id="Layer_1" xmlns="http://www.w3.org/2000/svg" xmlns:xlink="http://www.w3.org/1999/xlink" x="0px" y="0px"
	 viewBox="0 0 512 512" style="enable-background:new 0 0 512 512;" xml:space="preserve">
<style type="text/css">
	.st0{fill:#6B4856;}
	.st1{fill:#FFFFFF;}
</style>
<circle class="st0" cx="256" cy="256" r="256"/>
<g>
	<g>
		<g>
			<path class="st1" d="M201.5,256.1L327.6,130c3.5-3.5,5.4-8.1,5.4-13c0-4.9-1.9-9.6-5.4-13l-11-11c-3.5-3.5-8.1-5.4-13-5.4
				c-4.9,0-9.6,1.9-13,5.4L140.4,243c-3.5,3.5-5.4,8.1-5.4,13.1c0,5,1.9,9.6,5.4,13.1l150,150c3.5,3.5,8.1,5.4,13,5.4
				c4.9,0,9.6-1.9,13-5.4l11-11c7.2-7.2,7.2-18.9,0-26.1L201.5,256.1z"/>
		</g>
	</g>
</g>
</svg>
