<?xml version="1.0" encoding="utf-8"?>
<!-- Generator: Adobe Illustrator 24.1.0, SVG Export Plug-In . SVG Version: 6.00 Build 0)  -->
<svg version="1.1" id="Capa_1" xmlns="http://www.w3.org/2000/svg" xmlns:xlink="http://www.w3.org/1999/xlink" x="0px" y="0px"
	 viewBox="0 0 310.5 74.5" style="enable-background:new 0 0 310.5 74.5;" xml:space="preserve">
<style type="text/css">
	.st0{fill:#6B4856;}
</style>
<g>
	<path class="st0" d="M40.5,64.9c0,6.7,3.2,8.5,3.2,8.5h-8.1c0,0-3-0.8-3-8.5V9.6c0-2-1.3-3.2-3.7-3.2c-2.6,0-3.9,1.3-3.9,3.2v63.7
		H17V9.6c0-2-1.4-3.2-3.7-3.2c-2.5,0-3.7,1.3-3.7,3.2v63.8H1.3V1.2h8.2v2.2C9.6,3,11,0.9,16.2,0.9c2.6,0,5,0.8,6.3,2.5
		c1.4-1.7,4.3-2.5,7-2.5c5.8,0,11.1,1.7,11.1,9.6L40.5,64.9z"/>
	<path class="st0" d="M55,10.4c0-7.7,5.6-9.7,11.7-9.7c5.7,0,11.9,1.7,11.9,9.7v62.9h-8.1V52.8H63v20.5H55V10.4z M70.5,9.7
		c0-2.8-1.4-3.5-3.7-3.5C64.3,6.2,63,7,63,9.7v37.4c6,0,7.5,0,7.5,0V9.7z"/>
	<path class="st0" d="M103,1.2c10.5,0,13.7,2.6,13.7,11.6v23.8c0,6.6-1.3,9.7-4.9,11.9h4.9v16.4c0,6.7,3,8.5,3,8.5h-7.9
		c0,0-3.2-0.8-3.2-8.5v-12h-3.3h-4.2v20.5H93V1.2H103z M101.1,7.2v39.9c0.5,0,1.9,0,1.9,0c4.1,0,5.6-3.1,5.6-9.8V11
		c0-3.1-0.9-3.9-5.3-3.9H101.1z"/>
	<path class="st0" d="M129.9,11.9c0-8.1,2-13.5,21.5-10.5v6c-11.8-2.1-13.4,0-13.4,3.9v52.1c0,3.9,1.6,5.8,13.4,3.9v6
		c-19.5,3-21.5-2.4-21.5-10.5V11.9z"/>
	<path class="st0" d="M162,11.9c0-8.1,2-13.5,21.5-10.5v6c-11.8-2.1-13.4,0-13.4,3.9v52.1c0,3.9,1.6,5.8,13.4,3.9v6
		c-19.5,3-21.5-2.4-21.5-10.5V11.9z"/>
	<path class="st0" d="M202.2,63.4c0,3.9,1.6,5.8,13.4,3.9v6c-19.5,3-21.5-2.4-21.5-10.5V11.9c0-8.1,2-13.5,21.5-10.5v6
		c-11.8-2.1-13.4,0-13.4,3.9v35.8h11.9v5.8h-11.9V63.4z"/>
	<path class="st0" d="M247.9,73.3h-19.6V1.2h8.2v66.4h11.5V73.3z"/>
	<path class="st0" d="M277.5,73.3h-19.6V1.2h8.2v66.4h11.5V73.3z"/>
	<path class="st0" d="M296.7,74.3c-6.1,0-11.7-2.1-11.7-9.8V10.1c0-7.6,5.6-9.7,11.7-9.7c5.6,0,11.9,1.8,11.9,9.7v54.4
		C308.6,72.5,302.3,74.3,296.7,74.3z M293.1,65.1c0,2.6,1.3,3.4,3.7,3.4c2.3,0,3.6-0.7,3.6-3.4V9.7c0-2.8-1.3-3.5-3.6-3.5
		c-2.5,0-3.7,0.8-3.7,3.5V65.1z"/>
</g>
</svg>
