<?xml version="1.0" encoding="utf-8"?>
<!-- Generator: Adobe Illustrator 24.1.0, SVG Export Plug-In . SVG Version: 6.00 Build 0)  -->
<svg version="1.1" id="Capa_1" xmlns="http://www.w3.org/2000/svg" xmlns:xlink="http://www.w3.org/1999/xlink" x="0px" y="0px"
	 viewBox="0 0 275.91 74.51" style="enable-background:new 0 0 275.91 74.51;" xml:space="preserve">
<style type="text/css">
	.st0{fill:#BBC5BF;}
	.st1{fill:#1C3932;}
	.st2{fill:#A0AC93;}
	.st3{fill:#EBE6DC;}
	.st4{fill:#DCC3CA;}
	.st5{fill:#F7F1EB;}
	.st6{fill:#E2D5DA;}
	.st7{fill:#6B4856;}
	.st8{fill:#F4EFE9;}
	.st9{fill:#DDBFC8;}
	.st10{fill:#CFE0D5;}
	.st11{fill:#EFEAE1;}
	.st12{fill:#D6E3E8;}
	.st13{fill:#426B75;}
	.st14{fill:#C1B9AE;}
</style>
<g>
	<path class="st7" d="M30.37,65c0,6.8,2.45,8.52,2.45,8.52h-6.25c0,0-2.36-0.82-2.36-8.52V9.25c0-1.99-1-3.26-2.9-3.26
		c-2,0-2.99,1.27-2.99,3.26v64.27h-6.16V9.25c0-1.99-1.09-3.26-2.9-3.26c-1.9,0-2.9,1.27-2.9,3.26v64.36H0V0.82h6.34v2.18
		c0.09-0.36,1.18-2.54,5.17-2.54c1.99,0,3.9,0.82,4.9,2.54c1.09-1.72,3.35-2.54,5.44-2.54c4.53,0,8.61,1.72,8.61,9.7L30.37,65z"/>
	<path class="st7" d="M46.14,10.06c0-7.8,4.35-9.79,9.06-9.79c4.44,0,9.25,1.72,9.25,9.79v63.45h-6.25V52.85h-5.8v20.67h-6.25V10.06
		z M58.19,9.34c0-2.81-1.09-3.54-2.9-3.54c-1.9,0-2.9,0.82-2.9,3.54v37.71c4.62,0,5.8,0,5.8,0V9.34z"/>
	<path class="st7" d="M87.92,0.82c8.16,0,10.61,2.63,10.61,11.69v24.02c0,6.62-1,9.79-3.81,11.97h3.81V65c0,6.8,2.36,8.52,2.36,8.52
		h-6.16c0,0-2.45-0.82-2.45-8.52V52.85h-2.54h-3.26v20.67h-6.35V0.82H87.92z M86.47,6.8v40.25c0.36,0,1.45,0,1.45,0
		c3.17,0,4.35-3.17,4.35-9.88V10.7c0-3.17-0.73-3.9-4.08-3.9H86.47z"/>
	<path class="st7" d="M113.3,11.6c0-8.16,1.54-13.6,16.68-10.61v6.07c-9.16-2.09-10.42,0-10.42,3.9v52.49c0,3.9,1.27,5.89,10.42,3.9
		v6.07c-15.14,2.99-16.68-2.45-16.68-10.61V11.6z"/>
	<path class="st7" d="M142.76,11.6c0-8.16,1.54-13.6,16.68-10.61v6.07c-9.16-2.09-10.43,0-10.43,3.9v52.49
		c0,3.9,1.27,5.89,10.43,3.9v6.07c-15.14,2.99-16.68-2.45-16.68-10.61V11.6z"/>
	<path class="st7" d="M178.47,63.45c0,3.9,1.27,5.89,10.42,3.9v6.07c-15.14,2.99-16.68-2.45-16.68-10.61V11.6
		c0-8.16,1.54-13.6,16.68-10.61v6.07c-9.16-2.09-10.42,0-10.42,3.9v36.08h9.25v5.8h-9.25V63.45z"/>
	<path class="st7" d="M218.45,73.52h-15.23V0.82h6.34v66.99h8.88V73.52z"/>
	<path class="st7" d="M245.91,73.52h-15.23V0.82h6.34v66.99h8.88V73.52z"/>
	<path class="st7" d="M266.66,74.51c-4.71,0-9.06-2.09-9.06-9.88V9.79c0-7.71,4.35-9.79,9.06-9.79c4.35,0,9.25,1.81,9.25,9.79v54.84
		C275.91,72.7,271.02,74.51,266.66,74.51z M263.85,65.18c0,2.63,1,3.44,2.9,3.44c1.81,0,2.81-0.72,2.81-3.44V9.34
		c0-2.81-1-3.54-2.81-3.54c-1.9,0-2.9,0.82-2.9,3.54V65.18z"/>
</g>
</svg>
